Info

Release Name: Kung Fu Panda Secrets of the Furious Five
Release Date: November 9, 2008 UsA
Release Length: 24mn 40s
Storyline:Po is assigned by Master Shifu to teach an introduction to kung fu class for a group of rambunctious rabbit children. Fortunately for Po, it does not take him long to bring the class to order and for the children to calm down, and begins to emphasize to the kids that combat is not the only part of what kung fu is about, while its true meaning is "excellence of self." To illustrate his point, he uses the stories of the Furious Five's individual pasts and the basic philosophical concepts they learned that enabled them to be great kung fu masters

Cast

Jack Black             -  Po
Dustin Hoffman         -  Master Shifu
David Cross            -  Master Crane
Randall Duk Kim        -  Master Oogway
Elizabeth Ann Bennett  -  Ant and Bunny
Jaycee Chan            -  Young Master Monkey
Jessica DiCicco        -  Young Master Viper
Max Koch               -  young Master Mantis
Stephanie Lemelin      -  Mei Ling
James Sie              -  Grand Master Viper
Tara Strong            -  young Master Tigress
Frank Welker           -  Animals' vocal effects (uncredited)


Info Specs

Genre :  Animation | Short | Action
Language : Hindi 
Original Source: HDTV
Total Size: 525 MB
Encoder: Harshad (HD Desi Rockers)

General
Complete name                    : Kung Fu Panda Secrets Of The Furious Five.[Exclusive].HDTV.720p. [Hindi]~Harshad.mkv
Format                           : Matroska
File size                        : 525 MiB
Duration                         : 24mn 40s
Overall bit rate                 : 2 977 Kbps
Encoded date                     : UTC 2011-11-22 17:53:12
Writing application              : mkvmerge v4.8.0 ('I Got The...') built on May 24 2011 03:12:58
Writing library                  : libebml v1.2.0 + libmatroska v1.1.0




Video
ID                               : 1
Format                           : AVC
Format/Info                      : Advanced Video Codec
Format profile                   : High@L3.1
Format settings, CABAC           : Yes
Format settings, ReFrames        : 5 frames
Format settings, GOP             : M=2, N=4
Muxing mode                      : Container profile=Unknown@3.1
Codec ID                         : V_MPEG4/ISO/AVC
Duration                         : 24mn 40s
Bit rate                         : 2 661 Kbps
Nominal bit rate                 : 2 849 Kbps
Width                            : 1 280 pixels
Height                           : 720 pixels
Display aspect ratio             : 16:9
Frame rate                       : 24.000 fps
Original frame rate              : 25.000 fps
Color space                      : YUV
Chroma subsampling               : 4:2:0
Bit depth                        : 8 bits
Scan type                        : Progressive
Bits/(Pixel*Frame)               : 0.120
Stream size                      : 470 MiB (89%)
Title                            : Video
Writing library                  : x264 core 64 r995 2324c70



Audio
ID                               : 2
Format                           : MPEG Audio
Format version                   : Version 1
Format profile                   : Layer 3
Codec ID                         : A_MPEG/L3
Codec ID/Hint                    : MP3
Duration                         : 24mn 40s
Bit rate mode                    : Constant
Bit rate                         : 256 Kbps
Channel(s)                       : 2 channels
Sampling rate                    : 44.1 KHz
Stream size                      : 45.2 MiB (9%)
Title                            : Hindi_by_Harshad
Language                         : Hindi


Screenshots
 
http://img710.imageshack.us/img710/1438/57414335.jpg 
http://img405.imageshack.us/img405/3665/20458337.jpg 
http://img32.imageshack.us/img32/2128/13570951.jpg 
http://img221.imageshack.us/img221/3697/34205273m.jpg 
http://img205.imageshack.us/img205/1897/51377690.jpg 
http://img14.imageshack.us/img14/8072/25418397.jpg

